<?xml version="1.0" encoding="UTF-8" standalone="no"?>
<!-- Created with Inkscape (http://www.inkscape.org/) -->

<svg
   width="53.118126mm"
   height="53.118126mm"
   viewBox="0 0 53.118126 53.118126"
   version="1.1"
   id="svg2472"
   xml:space="preserve"
   inkscape:version="1.2.2 (732a01da63, 2022-12-09)"
   sodipodi:docname="accessibility icon.svg"
   xmlns:inkscape="http://www.inkscape.org/namespaces/inkscape"
   xmlns:sodipodi="http://sodipodi.sourceforge.net/DTD/sodipodi-0.dtd"
   xmlns="http://www.w3.org/2000/svg"
   xmlns:svg="http://www.w3.org/2000/svg"><sodipodi:namedview
     id="namedview2474"
     pagecolor="#ffffff"
     bordercolor="#000000"
     borderopacity="0.25"
     inkscape:showpageshadow="2"
     inkscape:pageopacity="0.0"
     inkscape:pagecheckerboard="true"
     inkscape:deskcolor="#d1d1d1"
     inkscape:document-units="mm"
     showgrid="false"
     inkscape:zoom="0.37282198"
     inkscape:cx="-481.46303"
     inkscape:cy="547.17804"
     inkscape:window-width="1920"
     inkscape:window-height="1017"
     inkscape:window-x="-8"
     inkscape:window-y="-8"
     inkscape:window-maximized="1"
     inkscape:current-layer="layer1" /><defs
     id="defs2469" /><g
     inkscape:label="Ebene 1"
     inkscape:groupmode="layer"
     id="layer1"
     transform="translate(-106.15061,-67.82803)"><path
       id="path5124"
       style="color:#000000;font-variation-settings:normal;fill:#5732a7;fill-opacity:1;fill-rule:evenodd;stroke:none;stroke-width:3.5;stroke-linecap:butt;stroke-linejoin:miter;stroke-miterlimit:4;stroke-dasharray:none;stroke-dashoffset:0;stroke-opacity:1;stop-color:#000000"
       d="m 118.97362,85.376201 c -0.73468,0.029 -1.37286,0.51424 -1.59732,1.2144 -0.29413,0.9201 0.21288,1.90451 1.13275,2.19935 l 10.10171,3.094402 v 0 7.41764 0 l -4.16615,10.378177 c -0.36112,0.89702 0.0737,1.9169 0.971,2.27738 0.89687,0.35957 1.91543,-0.0758 2.27531,-0.97255 l 4.69119,-11.683007 h 0.57722 l 4.76664,11.870587 c 0.35987,0.89675 1.37844,1.33212 2.27531,0.97255 0.89674,-0.35988 1.33212,-1.37844 0.97255,-2.27531 l -4.26227,-10.615367 v -7.15202 0 l 10.19783,-3.123322 c 0.92087,-0.29461 1.42835,-1.28017 1.13326,-2.20089 -0.29482,-0.92095 -1.28068,-1.42822 -2.20142,-1.13275 l -9.12967,2.79466 v 0 l -7.91115,-0.031 v 0 l -9.22476,-2.95124 c -0.19438,-0.0621 -0.39813,-0.0897 -0.60203,-0.0816 z"
       sodipodi:nodetypes="cccccccccccccccccccccccccccc" /><circle
       style="font-variation-settings:normal;vector-effect:none;fill:#5732a7;fill-opacity:1;fill-rule:evenodd;stroke:none;stroke-width:3.5;stroke-linecap:butt;stroke-linejoin:miter;stroke-miterlimit:4;stroke-dasharray:none;stroke-dashoffset:0;stroke-opacity:1;-inkscape-stroke:none;stop-color:#000000"
       id="path6273"
       cx="132.70967"
       cy="81.997429"
       r="4.4357104" /><circle
       style="font-variation-settings:normal;mix-blend-mode:darken;vector-effect:none;fill:none;fill-opacity:1;fill-rule:evenodd;stroke:#5732a7;stroke-width:3.5;stroke-linecap:butt;stroke-linejoin:miter;stroke-miterlimit:4;stroke-dasharray:none;stroke-dashoffset:0;stroke-opacity:1;-inkscape-stroke:none;paint-order:normal;stop-color:#000000"
       id="path6273-3"
       cx="132.70967"
       cy="94.387093"
       r="24.809063" /></g></svg>
