<?xml version="1.0" encoding="UTF-8" standalone="no"?>
<!-- Created with Inkscape (http://www.inkscape.org/) -->

<svg
   width="210.00011mm"
   height="18.903238mm"
   viewBox="0 0 210.00011 18.903238"
   version="1.1"
   id="svg5"
   sodipodi:docname="footer-border.svg"
   inkscape:version="1.2.2 (732a01da63, 2022-12-09)"
   xmlns:inkscape="http://www.inkscape.org/namespaces/inkscape"
   xmlns:sodipodi="http://sodipodi.sourceforge.net/DTD/sodipodi-0.dtd"
   xmlns="http://www.w3.org/2000/svg"
   xmlns:svg="http://www.w3.org/2000/svg">
  <sodipodi:namedview
     id="namedview7"
     pagecolor="#ffffff"
     bordercolor="#000000"
     borderopacity="0.25"
     inkscape:showpageshadow="2"
     inkscape:pageopacity="0.0"
     inkscape:pagecheckerboard="0"
     inkscape:deskcolor="#d1d1d1"
     inkscape:document-units="mm"
     showgrid="false"
     inkscape:zoom="2"
     inkscape:cx="263"
     inkscape:cy="52"
     inkscape:window-width="3840"
     inkscape:window-height="2066"
     inkscape:window-x="-11"
     inkscape:window-y="-11"
     inkscape:window-maximized="1"
     inkscape:current-layer="layer1" />
  <defs
     id="defs2" />
  <g
     inkscape:label="Ebene 1"
     inkscape:groupmode="layer"
     id="layer1">
    <path
       id="rect4952"
       style="fill:#5732a7;fill-opacity:1;fill-rule:evenodd;stroke:none;stroke-width:3.49999;stroke-linecap:butt;stroke-dasharray:none;stroke-opacity:1;stop-color:#000000"
       d="m 210.00011,0 c -0.29693,0.1299688 -0.58691,0.26308297 -0.88678,0.39170737 -0.86709,0.37193567 -1.74645,0.73798003 -2.63756,1.09864083 -0.89111,0.3606609 -1.79399,0.7157144 -2.70836,1.0650513 -0.91437,0.3493369 -1.84022,0.692981 -2.77709,1.0309448 -0.93688,0.3379638 -1.88462,0.6702968 -2.84324,0.9968384 -0.95862,0.3265416 -1.92823,0.6471448 -2.90783,0.9622152 -0.97961,0.3150703 -1.96949,0.6245587 -2.96933,0.9281087 -0.99984,0.30355 -2.00944,0.601505 -3.02876,0.8934855 -1.01932,0.2919805 -2.04808,0.5779836 -3.08611,0.8583457 -1.03804,0.280362 -2.08542,0.5550277 -3.14141,0.8237217 -1.056,0.2686937 -2.12092,0.5316047 -3.19413,0.7885824 -1.0732,0.2569771 -2.15459,0.5077131 -3.24424,0.7529251 -1.08965,0.245212 -2.18748,0.484906 -3.29282,0.718303 -1.10535,0.233396 -2.21854,0.460596 -3.33882,0.682128 -1.12028,0.221533 -2.24777,0.43737 -3.38222,0.646989 -1.13446,0.20962 -2.27569,0.413158 -3.42356,0.610816 -1.14788,0.197657 -2.3023,0.389512 -3.46284,0.575159 -1.16054,0.185646 -2.32708,0.364882 -3.49953,0.538468 -1.17245,0.173586 -2.35055,0.341335 -3.53415,0.502812 -1.1836,0.161476 -2.37272,0.316803 -3.56671,0.466121 -1.19399,0.149318 -2.39305,0.292838 -3.59668,0.429948 -1.20362,0.13711 -2.41208,0.267888 -3.62458,0.392741 -1.21251,0.124853 -2.42928,0.243503 -3.64991,0.35605 -1.22063,0.112548 -2.44517,0.219169 -3.67316,0.319361 -1.228,0.100192 -2.45923,0.193848 -3.69383,0.281636 -1.23461,0.08779 -2.4725,0.169612 -3.71295,0.244947 -1.24046,0.07533 -2.48342,0.144389 -3.72897,0.207222 -1.24556,0.06283 -2.49356,0.119218 -3.74345,0.169499 -1.24989,0.05028 -2.50185,0.09461 -3.75532,0.132292 -1.25347,0.03768 -2.50833,0.06902 -3.76463,0.09405 -1.2563,0.02503 -2.51402,0.04348 -3.77238,0.05581 -1.25836,0.01233 -2.51735,0.0185 -3.77703,0.01809 -1.25967,-4.15e-4 -2.5199,-0.0075 -3.78013,-0.02067 -1.26023,-0.01321 -2.520622,-0.03285 -3.780649,-0.05891 -1.260026,-0.02606 -2.52003,-0.0582 -3.779097,-0.09715 -1.259067,-0.03895 -2.517096,-0.08453 -3.774447,-0.136426 -1.25735,-0.0519 -2.513885,-0.110293 -3.768762,-0.175183 -1.254877,-0.06489 -2.50833,-0.136525 -3.759977,-0.214458 -1.251647,-0.07793 -2.501465,-0.16219 -3.749125,-0.253214 -1.24766,-0.09102 -2.49329,-0.188324 -3.736206,-0.292489 -1.242917,-0.104169 -2.483288,-0.21493 -3.720704,-0.332284 -1.237415,-0.117354 -2.471458,-0.241478 -3.702616,-0.37207 -1.231158,-0.130593 -2.459352,-0.267981 -3.683496,-0.411862 -1.224144,-0.14388 -2.444386,-0.294434 -3.660758,-0.451652 C 58.46939,15.059424 57.257136,14.895802 56.049292,14.725198 54.841448,14.554595 53.637736,14.37697 52.439176,14.192931 51.240617,14.008893 50.047034,13.818396 48.858516,13.620873 47.669999,13.423351 46.486581,13.219047 45.308862,13.007991 44.131144,12.796935 42.958961,12.578922 41.792798,12.354284 40.626635,12.129646 39.466757,11.898022 38.312907,11.659753 37.159056,11.421483 36.011521,11.176864 34.87074,10.924914 33.729959,10.672963 32.595835,10.413897 31.46888,10.148217 30.341925,9.8825369 29.222284,9.6101542 28.109912,9.3306962 26.99754,9.0512375 25.892418,8.7646035 24.795386,8.4713178 23.698354,8.1780308 22.609337,7.8777606 21.528402,7.5705972 20.447466,7.2634339 19.374592,6.9496253 18.31051,6.6285359 17.246428,6.3074465 16.190767,5.9791644 15.144295,5.6440999 14.097824,5.3090353 13.060445,4.9668946 12.03234,4.6178059 11.004236,4.2687172 9.9856929,3.9128161 8.9767131,3.549654 7.9677332,3.186492 6.9685788,2.816412 5.97948,2.4391275 4.9903812,2.0618431 4.0111693,1.6771655 3.0427083,1.2857096 2.0742474,0.89425364 1.1165649,0.49559347 0.1694987,0.089917 0.11231777,0.0654235 0.05710148,0.0395316 0,0.0149862 V 18.903238 h 210.0001 z"
       sodipodi:nodetypes="csssssssssssssssssssssssssssssssscssssssssssssssssssssssssssssscccc" />
  </g>
</svg>
